<svg width="1144" height="617" viewBox="0 0 1144 617" fill="none" xmlns="http://www.w3.org/2000/svg">
<path opacity="0.1" d="M1144 396.23C1144.06 429.326 1135.03 461.802 1117.88 490.11C1117.88 524.73 1101.74 556.11 1075.56 578.98C1069.01 584.696 1061.95 589.81 1054.48 594.26C1054.18 594.45 1053.87 594.63 1053.56 594.81C1053 595.14 1052.44 595.47 1051.87 595.81L1051.34 596.12C1048.95 597.47 1046.51 598.77 1044.02 599.99C1021.08 611.273 995.829 617.091 970.26 616.99H217.17C211.17 616.99 205.224 616.75 199.33 616.27C178.387 614.62 157.807 609.855 138.27 602.13C134.457 600.623 130.717 599.003 127.05 597.27C125.304 596.45 123.574 595.607 121.86 594.74C120.79 594.2 119.72 593.64 118.66 593.08C112.229 589.66 105.998 585.874 100 581.74C94.5187 577.988 89.2443 573.942 84.2004 569.62C50.1704 540.42 29.1204 500.01 29.1204 455.42C10.046 426.048 -0.0717957 391.762 0.00038351 356.74C0.00038351 257.6 79.2404 177.23 177 177.23C180 177.23 183 177.32 186 177.48C186.43 177.48 186.85 177.48 187.28 177.54C203.76 149.45 225.79 123.64 252.28 100.92C324.52 39.02 430.1 0 547.71 0C646.53 0 736.86 27.55 806.05 73.07C832.269 58.2489 861.883 50.4794 892 50.52C989.74 50.52 1069 130.89 1069 230.03C1068.99 236.303 1068.65 242.571 1068 248.81C1091.56 265.488 1110.76 287.588 1123.99 313.245C1137.22 338.902 1144.08 367.364 1144 396.23V396.23Z" fill="#6C63FF"/>
<g clip-path="url(#clip0_2_186)">
<path d="M647.445 63.1253H571.445V108.125H647.445V63.1253Z" fill="#2F2E41"/>
<path d="M496.152 70.3812H456.968V56.7174C456.968 51.5212 459.032 46.5379 462.706 42.8637C466.38 39.1894 471.363 37.1253 476.56 37.1253C481.756 37.1253 486.739 39.1894 490.413 42.8637C494.088 46.5379 496.152 51.5212 496.152 56.7174V70.3812ZM457.835 69.5137H495.284V56.7174C495.284 51.7513 493.311 46.9886 489.8 43.4771C486.288 39.9656 481.526 37.9928 476.56 37.9928C471.594 37.9928 466.831 39.9656 463.319 43.4771C459.808 46.9886 457.835 51.7513 457.835 56.7174V69.5137Z" fill="#3F3D56"/>
<path d="M515.527 68.502V63.162L415.877 65.832L412.723 201.092L427.471 219.31L515.527 68.502Z" fill="#3F3D56"/>
<path d="M533.167 66.622L425.158 69.08L427.471 219.31L531.705 208.075L533.167 66.622Z" fill="#444054"/>
<path d="M624.997 553.355H612.737L606.905 506.067H624.999L624.997 553.355Z" fill="#FFB6B6"/>
<path d="M628.123 565.239L588.593 565.238V564.738C588.593 560.657 590.214 556.744 593.099 553.858C595.985 550.973 599.898 549.352 603.979 549.351H603.98L628.124 549.352L628.123 565.239Z" fill="#2F2E41"/>
<path d="M579.997 553.355H567.737L561.905 506.067H579.999L579.997 553.355Z" fill="#FFB6B6"/>
<path d="M583.123 565.239L543.593 565.238V564.738C543.593 560.657 545.214 556.744 548.099 553.858C550.985 550.973 554.898 549.352 558.979 549.351H558.98L583.124 549.352L583.123 565.239Z" fill="#2F2E41"/>
<path d="M543.992 257.259C543.992 257.259 526.08 295.834 542.262 373.48C558.445 451.125 558.579 536.368 558.579 536.368L583.322 536.771L597.222 353.251L604.5 534.18H628.878L650.362 356.111C650.362 356.111 664.5 276.598 632.973 262.361L543.992 257.259Z" fill="#2F2E41"/>
<path d="M629.733 121.125L575.555 116.131C558.565 128.515 549.03 150.756 550.987 173.705C553.641 204.819 552.743 247.639 531.445 266.241C531.445 266.241 589.494 312.057 641.06 268.591C641.06 268.591 623.427 221.353 635.534 202.489C647.64 183.625 652.007 130.625 629.733 121.125Z" fill="#E4E4E4"/>
<path d="M468.527 44.2418C468.361 45.8035 468.539 47.3826 469.049 48.868C469.559 50.3533 470.389 51.7087 471.48 52.8387C472.571 53.9687 473.896 54.8459 475.362 55.4083C476.828 55.9708 478.4 56.2049 479.967 56.0942L551.5 122.852L564.321 103.322L489.975 43.8425C489.614 41.223 488.305 38.8268 486.296 37.1078C484.287 35.3889 481.717 34.4666 479.073 34.5158C476.43 34.565 473.896 35.5823 471.952 37.3749C470.008 39.1674 468.79 41.6107 468.527 44.2418V44.2418Z" fill="#FFB6B6"/>
<path d="M538.142 112.539L555.112 95.1073C555.595 94.6113 556.179 94.2252 556.824 93.9753C557.47 93.7254 558.162 93.6176 558.853 93.6592C559.544 93.7007 560.217 93.8907 560.828 94.2162C561.439 94.5417 561.973 94.995 562.393 95.5453L577.105 114.828C579.628 117.313 581.063 120.697 581.095 124.238C581.127 127.779 579.754 131.189 577.276 133.719C574.799 136.249 571.419 137.694 567.878 137.736C564.336 137.778 560.923 136.414 558.386 133.944L538.775 119.805C538.214 119.4 537.747 118.879 537.405 118.277C537.063 117.675 536.855 117.007 536.795 116.317C536.735 115.628 536.824 114.933 537.057 114.281C537.289 113.629 537.659 113.035 538.142 112.539V112.539Z" fill="#E4E4E4"/>
<path d="M734.284 206.812C734.364 205.243 734.098 203.677 733.506 202.222C732.914 200.767 732.01 199.46 730.859 198.392C729.707 197.325 728.335 196.522 726.84 196.042C725.344 195.562 723.762 195.416 722.204 195.613L647.072 132.933L635.356 153.145L712.892 208.402C713.398 210.998 714.837 213.317 716.939 214.922C719.041 216.527 721.658 217.305 724.295 217.109C726.931 216.913 729.405 215.756 731.246 213.859C733.087 211.961 734.168 209.454 734.284 206.812V206.812Z" fill="#FFB6B6"/>
<path d="M660.982 142.488L645.007 160.835C644.553 161.357 643.991 161.775 643.36 162.061C642.73 162.346 642.045 162.492 641.353 162.489C640.661 162.486 639.977 162.334 639.349 162.043C638.721 161.752 638.163 161.329 637.713 160.803L621.953 142.367C619.295 140.026 617.674 136.727 617.445 133.193C617.216 129.659 618.398 126.178 620.731 123.514C623.064 120.85 626.359 119.22 629.893 118.981C633.426 118.742 636.91 119.915 639.581 122.241L659.946 135.268C660.529 135.641 661.025 136.135 661.4 136.717C661.774 137.299 662.019 137.955 662.118 138.641C662.216 139.326 662.165 140.024 661.97 140.688C661.774 141.352 661.437 141.966 660.982 142.488V142.488Z" fill="#E4E4E4"/>
<path d="M741.918 233.316H712.237V222.966C712.237 219.03 713.801 215.255 716.584 212.472C719.367 209.689 723.142 208.125 727.078 208.125C731.013 208.125 734.788 209.689 737.571 212.472C740.354 215.255 741.918 219.03 741.918 222.966L741.918 233.316ZM712.894 232.659H741.261V222.966C741.261 219.204 739.766 215.596 737.107 212.937C734.447 210.277 730.839 208.782 727.077 208.782C723.316 208.782 719.708 210.277 717.048 212.937C714.388 215.596 712.894 219.204 712.894 222.966V232.659Z" fill="#2F9D64"/>
<path d="M756.594 231.892V227.847L681.112 229.87L678.723 332.325L689.894 346.125L756.594 231.892Z" fill="#3F3D56"/>
<path d="M769.956 230.468L688.142 232.33L689.894 346.125L768.849 337.615L769.956 230.468Z" fill="#2F9D64"/>
<path d="M606.445 107.125C624.118 107.125 638.445 92.7984 638.445 75.1252C638.445 57.4521 624.118 43.1252 606.445 43.1252C588.772 43.1252 574.445 57.4521 574.445 75.1252C574.445 92.7984 588.772 107.125 606.445 107.125Z" fill="#FFB6B6"/>
<path d="M591.712 60.8634C602.782 71.7118 622.046 72.7515 634.219 63.1576C637.598 74.8109 637.968 87.1304 635.294 98.9653C632.621 110.8 626.991 121.764 618.931 130.834C625.703 133.28 633.498 131.671 639.551 127.771C645.604 123.871 650.086 117.917 653.469 111.56C661.842 95.8259 663.939 76.6132 658.015 59.8025C652.091 42.9917 637.898 29.0522 620.655 24.5384C603.412 20.0247 583.642 25.6003 572.121 39.201C560.075 53.4232 558.123 74.2623 563.402 92.1374C568.681 110.013 580.26 125.363 592.981 138.985C586.871 123.272 582.819 106.835 580.926 90.0832C580.279 84.346 579.901 78.432 581.521 72.8905C583.142 67.349 587.131 62.1874 592.691 60.6304" fill="#2F2E41"/>
<path d="M785 567.125H404C403.735 567.125 403.48 567.02 403.293 566.832C403.105 566.645 403 566.39 403 566.125C403 565.86 403.105 565.606 403.293 565.418C403.48 565.231 403.735 565.125 404 565.125H785C785.265 565.125 785.52 565.231 785.707 565.418C785.895 565.606 786 565.86 786 566.125C786 566.39 785.895 566.645 785.707 566.832C785.52 567.02 785.265 567.125 785 567.125Z" fill="#CACACA"/>
<path d="M725.918 480.316H696.237V469.966C696.237 466.03 697.801 462.255 700.584 459.472C703.367 456.689 707.142 455.125 711.078 455.125C715.013 455.125 718.788 456.689 721.571 459.472C724.354 462.255 725.918 466.03 725.918 469.966L725.918 480.316ZM696.894 479.659H725.261V469.966C725.261 466.204 723.766 462.596 721.107 459.937C718.447 457.277 714.839 455.782 711.077 455.782C707.316 455.782 703.708 457.277 701.048 459.937C698.388 462.596 696.894 466.204 696.894 469.966V479.659Z" fill="#0071B3"/>
<path d="M740.594 478.892V474.847L665.112 476.87L662.723 579.325L673.894 593.125L740.594 478.892Z" fill="#CACACA"/>
<path d="M753.956 477.468L672.142 479.33L673.894 593.125L752.849 584.615L753.956 477.468Z" fill="#0071B3"/>
</g>
<defs>
<clipPath id="clip0_2_186">
<rect width="652" height="570.125" fill="white" transform="translate(134 23)"/>
</clipPath>
</defs>
</svg>
