<svg width="1087" height="779" viewBox="0 0 1087 779" fill="none" xmlns="http://www.w3.org/2000/svg">
<path opacity="0.1" d="M631.061 119.854C561.431 117.434 495.061 94.9544 431.781 70.3644C368.501 45.7744 305.781 18.5244 237.781 5.49438C194.061 -2.89562 144.061 -4.07562 108.841 19.3644C74.9411 41.9144 63.9911 80.8444 58.1011 116.964C53.6711 144.144 51.1011 172.744 63.2111 198.194C71.6411 215.854 86.6011 230.704 96.9511 247.624C132.951 306.494 107.501 379.094 68.4811 436.624C50.1811 463.624 28.9511 489.314 14.8311 518.024C0.711055 546.734 -5.82894 579.624 6.53106 608.904C18.7811 637.904 47.9611 659.724 79.5811 675.054C143.801 706.164 219.471 715.064 293.261 720.164C456.601 731.334 620.821 726.494 784.591 721.654C845.201 719.854 906.081 718.044 965.701 708.654C998.811 703.444 1033 695.184 1057.04 675.244C1087.55 649.924 1095.12 607.064 1074.67 575.314C1040.37 522.074 945.541 508.844 921.561 451.704C908.371 420.254 921.921 385.214 941.101 356.044C982.231 293.474 1051.19 238.574 1054.82 167.044C1057.32 117.914 1024.17 68.7244 972.911 45.4744C919.191 21.0844 844.691 24.1644 805.061 64.4744C764.251 106.004 692.531 121.984 631.061 119.854Z" fill="#6C63FF"/>
<g clip-path="url(#clip0_2_73)">
<path d="M495.896 211.38H491.864V100.927C491.864 92.5322 490.211 84.2193 486.998 76.4633C483.785 68.7073 479.077 61.66 473.14 55.7238C467.204 49.7876 460.157 45.0787 452.401 41.8661C444.645 38.6535 436.332 36.9999 427.937 37H193.927C185.532 36.9999 177.219 38.6535 169.463 41.8661C161.707 45.0787 154.66 49.7876 148.724 55.7238C142.788 61.66 138.079 68.7073 134.866 76.4633C131.654 84.2193 130 92.5322 130 100.927V706.881C130 715.276 131.654 723.589 134.866 731.345C138.079 739.101 142.788 746.148 148.724 752.084C154.66 758.021 161.707 762.729 169.463 765.942C177.219 769.155 185.532 770.808 193.927 770.808H427.937C436.332 770.808 444.645 769.155 452.401 765.942C460.157 762.729 467.204 758.021 473.14 752.084C479.077 746.148 483.785 739.101 486.998 731.345C490.211 723.589 491.864 715.276 491.864 706.881V290.003H495.896V211.38Z" fill="#022648"/>
<path d="M430.516 53.6317H399.97C401.375 57.0756 401.911 60.8122 401.532 64.5122C401.152 68.2122 399.869 71.762 397.794 74.8491C395.719 77.9361 392.917 80.4656 389.635 82.2147C386.352 83.9637 382.69 84.8787 378.971 84.879H244.91C241.19 84.8787 237.528 83.9637 234.245 82.2147C230.963 80.4656 228.161 77.9361 226.086 74.8491C224.012 71.762 222.728 68.2122 222.348 64.5122C221.969 60.8122 222.505 57.0756 223.91 53.6317H195.38C189.11 53.6316 182.903 54.8665 177.11 57.2656C171.318 59.6648 166.055 63.1813 161.622 67.6144C157.189 72.0474 153.673 77.3103 151.274 83.1024C148.874 88.8945 147.64 95.1024 147.64 101.372V706.436C147.64 712.706 148.874 718.914 151.274 724.706C153.673 730.498 157.189 735.761 161.622 740.194C166.055 744.627 171.318 748.143 177.11 750.543C182.903 752.942 189.11 754.177 195.38 754.177H430.516C436.786 754.177 442.994 752.942 448.786 750.543C454.578 748.143 459.841 744.627 464.274 740.194C468.707 735.761 472.223 730.498 474.623 724.706C477.022 718.914 478.256 712.706 478.256 706.436V101.372C478.256 95.1024 477.022 88.8945 474.623 83.1024C472.223 77.3103 468.707 72.0474 464.274 67.6144C459.841 63.1813 454.578 59.6648 448.786 57.2656C442.994 54.8665 436.786 53.6316 430.516 53.6317V53.6317Z" fill="white"/>
<path d="M243.672 176.635H229.633C229.139 176.635 228.666 176.831 228.317 177.18C227.968 177.529 227.772 178.002 227.772 178.496V184.658C227.772 185.152 227.968 185.625 228.317 185.974C228.666 186.324 229.139 186.52 229.633 186.52H231.96V195.753H241.346V186.52H243.672C244.166 186.52 244.639 186.324 244.989 185.974C245.338 185.625 245.534 185.152 245.534 184.658V178.496C245.534 178.002 245.338 177.529 244.989 177.18C244.639 176.831 244.166 176.635 243.672 176.635V176.635Z" fill="#E6E6E6"/>
<path d="M257.734 233.032C249.136 220.45 244.741 205.47 245.177 190.238C245.185 189.887 245.071 189.543 244.855 189.266C244.638 188.989 244.332 188.796 243.989 188.719V186.056H229.162V188.682H228.958C228.554 188.683 228.167 188.843 227.882 189.129C227.597 189.415 227.438 189.802 227.438 190.205C227.438 190.242 227.44 190.279 227.442 190.316C228.61 206.599 224.666 221.202 215.609 234.124C215.088 234.866 214.821 235.758 214.85 236.665L216.471 286.816C216.51 287.935 216.98 288.995 217.782 289.776C218.584 290.556 219.656 290.997 220.776 291.006H254.313C255.445 290.997 256.529 290.546 257.333 289.75C258.138 288.953 258.599 287.874 258.62 286.742L259.245 238.049C259.263 236.262 258.736 234.512 257.734 233.032Z" fill="#E6E6E6"/>
<path d="M252.425 249.69H223.234C222.802 249.69 222.375 249.784 221.982 249.964C221.589 250.145 221.24 250.408 220.959 250.736C220.678 251.064 220.471 251.449 220.352 251.864C220.233 252.28 220.206 252.716 220.272 253.143L224.683 281.816H250.013L255.371 253.24C255.452 252.807 255.437 252.361 255.326 251.935C255.216 251.509 255.013 251.112 254.731 250.773C254.45 250.434 254.098 250.162 253.699 249.975C253.301 249.787 252.866 249.69 252.425 249.69V249.69Z" fill="white"/>
<path d="M399.957 326.869H385.917C385.424 326.869 384.95 327.065 384.601 327.414C384.252 327.764 384.056 328.237 384.056 328.731V334.893C384.056 335.387 384.252 335.86 384.601 336.209C384.95 336.558 385.424 336.754 385.917 336.754H388.244V345.987H397.63V336.754H399.957C400.45 336.754 400.924 336.558 401.273 336.209C401.622 335.86 401.818 335.387 401.818 334.893V328.731C401.818 328.237 401.622 327.763 401.273 327.414C400.924 327.065 400.45 326.869 399.957 326.869Z" fill="#E6E6E6"/>
<path d="M414.019 383.266C405.42 370.685 401.025 355.705 401.462 340.473C401.47 340.121 401.355 339.778 401.139 339.501C400.922 339.224 400.617 339.031 400.274 338.954V336.291H385.446V338.917H385.242C385.042 338.917 384.844 338.956 384.66 339.033C384.475 339.11 384.308 339.222 384.167 339.364C384.026 339.505 383.914 339.673 383.837 339.858C383.761 340.042 383.722 340.24 383.722 340.44C383.722 340.477 383.724 340.514 383.727 340.551C384.895 356.834 380.95 371.436 371.893 384.358C371.372 385.101 371.106 385.993 371.134 386.899L372.756 437.051C372.795 438.169 373.264 439.23 374.066 440.01C374.868 440.791 375.941 441.232 377.06 441.241H410.597C411.729 441.232 412.813 440.781 413.617 439.984C414.422 439.188 414.884 438.109 414.904 436.977L415.529 388.284C415.547 386.497 415.021 384.746 414.019 383.266V383.266Z" fill="#E6E6E6"/>
<path d="M408.71 399.925H379.518C379.086 399.925 378.659 400.018 378.266 400.199C377.874 400.379 377.525 400.643 377.243 400.97C376.962 401.298 376.755 401.683 376.636 402.099C376.518 402.514 376.49 402.951 376.556 403.378L380.967 432.051H406.297L411.655 403.474C411.736 403.041 411.721 402.596 411.611 402.17C411.5 401.743 411.297 401.347 411.016 401.008C410.735 400.669 410.382 400.396 409.983 400.209C409.585 400.022 409.15 399.925 408.71 399.925H408.71Z" fill="white"/>
<path d="M223.935 539.257H217.276C217.041 539.257 216.817 539.35 216.651 539.515C216.486 539.681 216.393 539.906 216.393 540.14V543.063C216.393 543.297 216.486 543.521 216.651 543.687C216.817 543.853 217.041 543.946 217.276 543.946H218.379V548.325H222.831V543.946H223.935C224.169 543.946 224.394 543.853 224.559 543.687C224.725 543.521 224.818 543.297 224.818 543.063V540.14C224.818 539.906 224.725 539.681 224.559 539.515C224.394 539.35 224.169 539.257 223.935 539.257Z" fill="#E6E6E6"/>
<path d="M230.605 566.008C226.527 560.041 224.442 552.935 224.649 545.71C224.653 545.543 224.599 545.38 224.496 545.249C224.393 545.117 224.248 545.026 224.085 544.989V543.726H217.052V544.971H216.955C216.86 544.972 216.766 544.99 216.679 545.027C216.591 545.063 216.512 545.116 216.445 545.183C216.378 545.251 216.325 545.33 216.289 545.418C216.253 545.505 216.234 545.599 216.234 545.694C216.234 545.712 216.235 545.729 216.236 545.747C216.885 553.119 214.896 560.483 210.623 566.527C210.376 566.879 210.25 567.302 210.263 567.732L211.032 591.521C211.051 592.051 211.273 592.554 211.654 592.925C212.034 593.295 212.543 593.504 213.074 593.508H228.982C229.519 593.504 230.033 593.29 230.415 592.912C230.797 592.535 231.016 592.023 231.025 591.486L231.322 568.389C231.33 567.541 231.08 566.711 230.605 566.008V566.008Z" fill="#E6E6E6"/>
<path d="M228.316 574.753H213.137V582.343H228.316V574.753Z" fill="white"/>
<path d="M254.935 539.257H248.276C248.041 539.257 247.817 539.35 247.651 539.515C247.486 539.681 247.393 539.906 247.393 540.14V543.063C247.393 543.297 247.486 543.521 247.651 543.687C247.817 543.853 248.041 543.946 248.276 543.946H249.379V548.325H253.831V543.946H254.935C255.169 543.946 255.394 543.853 255.559 543.687C255.725 543.521 255.818 543.297 255.818 543.063V540.14C255.818 539.906 255.725 539.681 255.559 539.515C255.394 539.35 255.169 539.257 254.935 539.257Z" fill="#E6E6E6"/>
<path d="M261.605 566.008C257.527 560.041 255.442 552.935 255.649 545.71C255.653 545.543 255.599 545.38 255.496 545.249C255.393 545.117 255.248 545.026 255.085 544.989V543.726H248.052V544.971H247.955C247.86 544.972 247.767 544.99 247.679 545.027C247.591 545.063 247.512 545.116 247.445 545.183C247.378 545.251 247.325 545.33 247.289 545.418C247.253 545.505 247.234 545.599 247.234 545.694C247.234 545.712 247.235 545.729 247.236 545.747C247.886 553.119 245.896 560.483 241.623 566.527C241.376 566.879 241.25 567.302 241.263 567.732L242.032 591.521C242.051 592.051 242.273 592.554 242.654 592.925C243.034 593.295 243.543 593.504 244.074 593.508H259.982C260.519 593.504 261.033 593.29 261.415 592.912C261.797 592.535 262.016 592.023 262.025 591.486L262.322 568.389C262.33 567.541 262.081 566.711 261.605 566.008Z" fill="#E6E6E6"/>
<path d="M259.316 574.753H244.137V582.343H259.316V574.753Z" fill="white"/>
<path d="M285.935 539.257H279.276C279.041 539.257 278.817 539.35 278.651 539.515C278.486 539.681 278.393 539.906 278.393 540.14V543.063C278.393 543.297 278.486 543.521 278.651 543.687C278.817 543.853 279.041 543.946 279.276 543.946H280.379V548.325H284.831V543.946H285.935C286.169 543.946 286.394 543.853 286.559 543.687C286.725 543.521 286.818 543.297 286.818 543.063V540.14C286.818 539.906 286.725 539.681 286.559 539.515C286.394 539.35 286.169 539.257 285.935 539.257Z" fill="#E6E6E6"/>
<path d="M292.605 566.008C288.527 560.041 286.442 552.935 286.649 545.71C286.653 545.543 286.599 545.38 286.496 545.249C286.393 545.117 286.248 545.026 286.085 544.989V543.726H279.052V544.971H278.955C278.86 544.972 278.767 544.99 278.679 545.027C278.591 545.063 278.512 545.116 278.445 545.183C278.378 545.251 278.325 545.33 278.289 545.418C278.253 545.505 278.234 545.599 278.234 545.694C278.234 545.712 278.235 545.729 278.236 545.747C278.886 553.119 276.896 560.483 272.623 566.527C272.376 566.879 272.25 567.302 272.263 567.732L273.032 591.521C273.051 592.051 273.273 592.554 273.654 592.925C274.034 593.295 274.543 593.504 275.074 593.508H290.982C291.519 593.504 292.033 593.29 292.415 592.912C292.797 592.535 293.016 592.023 293.025 591.486L293.322 568.389C293.33 567.541 293.081 566.711 292.605 566.008Z" fill="#E6E6E6"/>
<path d="M290.316 574.753H275.137V582.343H290.316V574.753Z" fill="white"/>
<path d="M375.567 481.137H361.528C361.284 481.137 361.042 481.185 360.816 481.279C360.59 481.372 360.385 481.509 360.212 481.682C360.039 481.855 359.902 482.06 359.808 482.286C359.715 482.512 359.667 482.754 359.667 482.998V489.161C359.667 489.654 359.863 490.128 360.212 490.477C360.561 490.826 361.034 491.022 361.528 491.022H363.855V500.255H373.241V491.022H375.567C376.061 491.022 376.534 490.826 376.883 490.477C377.232 490.128 377.429 489.654 377.429 489.161V482.998C377.429 482.754 377.38 482.512 377.287 482.286C377.193 482.06 377.056 481.855 376.883 481.682C376.711 481.509 376.505 481.372 376.28 481.279C376.054 481.185 375.812 481.137 375.567 481.137V481.137Z" fill="#E6E6E6"/>
<path d="M389.629 537.534C381.031 524.953 376.636 509.973 377.072 494.74C377.08 494.389 376.966 494.046 376.749 493.769C376.533 493.492 376.227 493.298 375.884 493.221V490.559H361.057V493.184H360.852C360.653 493.185 360.455 493.224 360.27 493.301C360.086 493.378 359.918 493.49 359.777 493.631C359.636 493.773 359.524 493.941 359.448 494.125C359.372 494.31 359.333 494.508 359.333 494.708C359.333 494.745 359.334 494.782 359.337 494.818C360.505 511.102 356.561 525.704 347.504 538.626C346.983 539.369 346.716 540.26 346.745 541.167L348.366 591.318C348.405 592.437 348.875 593.497 349.677 594.278C350.479 595.059 351.551 595.5 352.671 595.508H386.208C387.34 595.499 388.424 595.048 389.228 594.252C390.032 593.455 390.494 592.376 390.515 591.244L391.14 542.552C391.158 540.764 390.631 539.014 389.629 537.534Z" fill="#E6E6E6"/>
<path d="M384.32 554.193H355.129C354.696 554.193 354.269 554.286 353.877 554.466C353.484 554.647 353.135 554.91 352.854 555.238C352.573 555.566 352.365 555.951 352.247 556.367C352.128 556.782 352.101 557.218 352.166 557.645L356.578 586.319H381.908L387.266 557.742C387.347 557.309 387.332 556.864 387.221 556.438C387.111 556.011 386.908 555.615 386.626 555.276C386.345 554.937 385.993 554.664 385.594 554.477C385.195 554.29 384.76 554.193 384.32 554.193V554.193Z" fill="white"/>
<path d="M383.232 297.462H299.544C305.395 265.829 304.049 227.631 299.544 186.551H383.232C378.847 227.631 377.536 265.829 383.232 297.462Z" fill="#E6E6E6"/>
<path d="M341.892 259.148C353.029 259.148 362.058 250.119 362.058 238.982C362.058 227.845 353.029 218.816 341.892 218.816C330.755 218.816 321.726 227.845 321.726 238.982C321.726 250.119 330.755 259.148 341.892 259.148Z" fill="white"/>
<path d="M306.602 444.672H222.914C228.765 413.039 227.419 374.84 222.914 333.761H306.602C302.217 374.841 300.907 413.039 306.602 444.672Z" fill="#E6E6E6"/>
<path d="M265.262 406.357C276.399 406.357 285.428 397.329 285.428 386.192C285.428 375.054 276.399 366.026 265.262 366.026C254.125 366.026 245.097 375.054 245.097 386.192C245.097 397.329 254.125 406.357 265.262 406.357Z" fill="white"/>
<path d="M430.621 304.52H346.933C352.784 272.887 351.438 234.689 346.933 193.609H430.621C426.236 234.689 424.926 272.887 430.621 304.52Z" fill="#E6E6E6"/>
<path d="M389.281 266.206C400.419 266.206 409.447 257.177 409.447 246.04C409.447 234.903 400.419 225.874 389.281 225.874C378.144 225.874 369.116 234.903 369.116 246.04C369.116 257.177 378.144 266.206 389.281 266.206Z" fill="white"/>
<path d="M430.621 299.479H346.933C352.784 267.846 351.438 229.647 346.933 188.568H430.621C426.236 229.647 424.926 267.846 430.621 299.479Z" fill="#E6E6E6"/>
<path d="M389.281 261.164C400.419 261.164 409.447 252.136 409.447 240.998C409.447 229.861 400.419 220.833 389.281 220.833C378.144 220.833 369.116 229.861 369.116 240.998C369.116 252.136 378.144 261.164 389.281 261.164Z" fill="white"/>
<path d="M430.621 304.52H346.933C352.784 272.887 351.438 234.689 346.933 193.609H430.621C426.236 234.689 424.926 272.887 430.621 304.52Z" fill="#E6E6E6"/>
<path d="M389.281 266.206C400.419 266.206 409.447 257.177 409.447 246.04C409.447 234.903 400.419 225.874 389.281 225.874C378.144 225.874 369.116 234.903 369.116 246.04C369.116 257.177 378.144 266.206 389.281 266.206Z" fill="white"/>
<path d="M449.779 291.413H175.525V321.661H449.779V291.413Z" fill="#E6E6E6"/>
<path d="M449.779 441.647H175.525V471.896H449.779V441.647Z" fill="#E6E6E6"/>
<path d="M449.779 591.882H175.525V622.13H449.779V591.882Z" fill="#E6E6E6"/>
<path d="M926.855 714.599L858.53 666.273C881.573 643.826 902.532 611.862 922.576 575.722L990.9 624.048C963.599 655.054 940.471 685.484 926.855 714.599Z" fill="#FF1A75"/>
<path d="M926.873 663.148C938.011 663.148 947.039 654.119 947.039 642.982C947.039 631.845 938.011 622.816 926.873 622.816C915.736 622.816 906.708 631.845 906.708 642.982C906.708 654.119 915.736 663.148 926.873 663.148Z" fill="white"/>
<path d="M597.262 494.078H589.762C589.499 494.078 589.246 494.183 589.059 494.369C588.873 494.556 588.768 494.809 588.768 495.073V498.365C588.768 498.495 588.794 498.624 588.844 498.745C588.894 498.866 588.967 498.975 589.059 499.068C589.152 499.16 589.261 499.233 589.382 499.283C589.503 499.333 589.632 499.359 589.762 499.359H591.005V504.291H596.02V499.359H597.262C597.526 499.359 597.779 499.254 597.965 499.068C598.152 498.881 598.257 498.628 598.257 498.365V495.073C598.257 494.809 598.152 494.556 597.965 494.369C597.779 494.183 597.526 494.078 597.262 494.078V494.078Z" fill="#E6E6E6"/>
<path d="M604.774 524.206C600.181 517.485 597.833 509.483 598.066 501.345C598.071 501.158 598.01 500.974 597.894 500.826C597.778 500.678 597.615 500.575 597.432 500.534V499.111H589.511V500.514H589.402C589.295 500.514 589.189 500.535 589.091 500.576C588.992 500.617 588.903 500.677 588.827 500.753C588.752 500.828 588.692 500.918 588.651 501.017C588.611 501.115 588.59 501.221 588.59 501.328C588.59 501.348 588.591 501.367 588.592 501.387C589.323 509.69 587.083 517.984 582.271 524.79C581.992 525.186 581.85 525.663 581.865 526.147L582.731 552.939C582.752 553.536 583.003 554.103 583.431 554.52C583.86 554.937 584.433 555.172 585.031 555.177H602.947C603.551 555.172 604.13 554.931 604.56 554.506C604.99 554.08 605.237 553.504 605.248 552.899L605.581 526.887C605.591 525.932 605.31 524.997 604.774 524.206V524.206Z" fill="#008EB3"/>
<path opacity="0.2" d="M595.699 495.151C595.699 495.72 595.473 496.265 595.071 496.668C594.668 497.07 594.123 497.296 593.554 497.296C592.985 497.296 592.439 497.07 592.037 496.668C591.634 496.265 591.408 495.72 591.408 495.151" fill="black"/>
<path d="M601.285 529.368H586.161V539.451H601.285V529.368Z" fill="white"/>
<path d="M834.602 598.742H820.563C820.069 598.742 819.596 598.938 819.247 599.287C818.898 599.636 818.702 600.109 818.702 600.603V606.765C818.702 607.259 818.898 607.733 819.247 608.082C819.596 608.431 820.069 608.627 820.563 608.627H822.89V617.86H832.276V608.627H834.602C835.096 608.627 835.569 608.431 835.919 608.082C836.268 607.733 836.464 607.259 836.464 606.765V600.603C836.464 600.109 836.268 599.636 835.919 599.287C835.569 598.938 835.096 598.742 834.602 598.742V598.742Z" fill="#E6E6E6"/>
<path d="M848.664 655.139C840.066 642.557 835.671 627.578 836.107 612.345C836.115 611.994 836.001 611.65 835.785 611.373C835.568 611.097 835.262 610.903 834.919 610.826V608.163H820.092V610.789H819.888C819.688 610.789 819.49 610.829 819.305 610.906C819.121 610.982 818.953 611.095 818.812 611.236C818.671 611.378 818.559 611.545 818.483 611.73C818.407 611.915 818.368 612.113 818.368 612.312C818.368 612.349 818.37 612.386 818.372 612.423C819.54 628.707 815.596 643.309 806.539 656.231C806.018 656.973 805.751 657.865 805.78 658.772L807.401 708.923C807.44 710.042 807.91 711.102 808.712 711.883C809.514 712.664 810.586 713.104 811.706 713.113H845.243C846.375 713.104 847.459 712.653 848.263 711.857C849.068 711.06 849.529 709.981 849.55 708.849L850.175 660.156C850.193 658.369 849.666 656.619 848.664 655.139V655.139Z" fill="#0000B3"/>
<path opacity="0.2" d="M831.676 600.75C831.676 601.815 831.253 602.836 830.5 603.589C829.746 604.342 828.725 604.766 827.66 604.766C826.595 604.766 825.574 604.342 824.82 603.589C824.067 602.836 823.644 601.815 823.644 600.75" fill="black"/>
<path d="M843.355 671.797H814.164C813.732 671.797 813.305 671.891 812.912 672.071C812.519 672.252 812.17 672.515 811.889 672.843C811.608 673.171 811.401 673.556 811.282 673.971C811.163 674.387 811.136 674.823 811.201 675.25L815.613 703.923H840.943L846.301 675.347C846.382 674.914 846.367 674.469 846.256 674.042C846.146 673.616 845.943 673.219 845.661 672.881C845.38 672.542 845.028 672.269 844.629 672.082C844.231 671.895 843.796 671.797 843.355 671.797V671.797Z" fill="white"/>
<path d="M794.546 714.52H710.858C716.709 682.887 715.363 644.688 710.858 603.608H794.546C790.161 644.688 788.851 682.887 794.546 714.52Z" fill="#F76566"/>
<path d="M753.206 676.205C764.344 676.205 773.372 667.177 773.372 656.039C773.372 644.902 764.344 635.874 753.206 635.874C742.069 635.874 733.041 644.902 733.041 656.039C733.041 667.177 742.069 676.205 753.206 676.205Z" fill="white"/>
<path d="M452.243 365.466L471.03 363.758L482.986 334.724L461.637 322.768L452.243 365.466Z" fill="#FFB8B8"/>
<path d="M624.66 445.174C625.285 443.616 625.531 441.932 625.377 440.26C625.223 438.589 624.674 436.978 623.775 435.56C622.876 434.143 621.654 432.959 620.208 432.106C618.762 431.254 617.134 430.757 615.459 430.657L586.289 428.918L581.994 443.2L612.023 451.447C614.532 452.136 617.207 451.878 619.538 450.721C621.869 449.564 623.692 447.589 624.66 445.174V445.174Z" fill="#FFB8B8"/>
<path d="M593.339 451.687L593.018 424.887L528.225 414.549L478.31 357.301C475.712 354.323 472.124 352.386 468.209 351.851C464.293 351.316 460.317 352.217 457.015 354.389C455.016 355.704 453.331 357.442 452.077 359.481C450.824 361.519 450.034 363.807 449.762 366.184C449.491 368.562 449.745 370.97 450.506 373.238C451.268 375.506 452.518 377.579 454.169 379.311L495.349 429.989L593.339 451.687Z" fill="#575A89"/>
<path d="M437.726 753.167H454.805L497.168 561.633L541.055 620.802L566.674 748.897H582.9L579.484 611.408L522.268 464.526H465.906C450.504 492.401 438.422 521.135 452.243 550.777L437.726 753.167Z" fill="#2F2E41"/>
<path d="M556.204 764.8C556.016 765.405 555.958 766.042 556.035 766.671C556.111 767.299 556.321 767.904 556.65 768.445C556.979 768.986 557.419 769.451 557.942 769.808C558.464 770.166 559.057 770.408 559.68 770.519L601.473 777.935C603.125 778.237 604.83 777.925 606.267 777.057C607.704 776.189 608.773 774.825 609.274 773.222V773.222C609.761 771.691 609.693 770.037 609.082 768.551C608.471 767.065 607.355 765.842 605.932 765.096C596.742 760.378 588.834 753.502 582.884 745.058C578.29 749.335 573.156 748.933 567.705 745.781L561.922 746.504L556.204 764.8Z" fill="#2F2E41"/>
<path d="M429.818 764.8C429.629 765.405 429.571 766.042 429.648 766.671C429.724 767.299 429.934 767.904 430.263 768.445C430.592 768.986 431.032 769.451 431.555 769.808C432.077 770.166 432.67 770.408 433.293 770.519L475.086 777.935C476.738 778.237 478.443 777.925 479.88 777.057C481.317 776.189 482.386 774.825 482.887 773.222V773.222C483.374 771.691 483.306 770.037 482.695 768.551C482.084 767.065 480.969 765.842 479.545 765.096C470.356 760.378 462.447 753.502 456.497 745.058C451.903 749.335 446.769 748.933 441.318 745.781L435.535 746.504L429.818 764.8Z" fill="#2F2E41"/>
<path d="M483.413 345.398C496.618 345.398 507.324 334.693 507.324 321.487C507.324 308.281 496.618 297.576 483.413 297.576C470.207 297.576 459.502 308.281 459.502 321.487C459.502 334.693 470.207 345.398 483.413 345.398Z" fill="#FFB8B8"/>
<path d="M462.064 470.931L524.403 469.223L506.095 411.604C517.473 393.364 506.022 375.144 489.817 356.927L477.008 348.387L456.513 346.679C447.639 356.174 442.784 368.735 442.964 381.73C443.369 409.556 448.297 439.848 462.064 470.931Z" fill="#575A89"/>
<path d="M605.291 509.716C606.479 508.529 607.367 507.077 607.883 505.48C608.399 503.883 608.528 502.186 608.259 500.529C607.991 498.872 607.333 497.303 606.339 495.95C605.345 494.598 604.043 493.501 602.542 492.75L576.409 479.675L566.841 491.116L591.205 510.511C593.241 512.132 595.802 512.947 598.4 512.8C600.998 512.653 603.451 511.555 605.291 509.716V509.716Z" fill="#FFB8B8"/>
<path d="M573.933 503.382L584.181 478.617L528.679 443.623L505.309 371.355C504.093 367.595 501.555 364.403 498.166 362.371C494.777 360.338 490.766 359.603 486.877 360.301V360.301C484.522 360.724 482.288 361.658 480.334 363.039C478.38 364.42 476.753 366.213 475.569 368.292C474.384 370.371 473.67 372.684 473.478 375.069C473.286 377.454 473.619 379.852 474.456 382.094L492.379 444.885L573.933 503.382Z" fill="#575A89"/>
<path d="M444.13 312.093C444.13 321.397 450.173 335.806 457.794 341.982C462.922 346.138 469.698 345.963 472.311 340.274C474.991 334.439 484.231 320.722 500.492 312.093C522.17 300.591 492.804 280.912 472.311 283.913C456.911 286.167 444.13 296.53 444.13 312.093Z" fill="#2F2E41"/>
<path d="M458.648 299.284C468.08 299.284 475.727 291.637 475.727 282.205C475.727 272.772 468.08 265.125 458.648 265.125C449.215 265.125 441.568 272.772 441.568 282.205C441.568 291.637 449.215 299.284 458.648 299.284Z" fill="#2F2E41"/>
<path d="M478.289 276.227C478.287 271.921 476.658 267.775 473.728 264.62C470.799 261.464 466.784 259.533 462.491 259.212C462.915 259.181 463.339 259.148 463.771 259.148C468.301 259.148 472.645 260.947 475.848 264.15C479.051 267.353 480.851 271.697 480.851 276.227C480.851 280.757 479.051 285.101 475.848 288.304C472.645 291.507 468.301 293.306 463.771 293.306C463.339 293.306 462.915 293.273 462.491 293.242C466.784 292.921 470.799 290.99 473.728 287.834C476.658 284.679 478.287 280.533 478.289 276.227Z" fill="#2F2E41"/>
<path d="M483.84 330.027C485.962 330.027 487.682 327.733 487.682 324.903C487.682 322.073 485.962 319.779 483.84 319.779C481.717 319.779 479.997 322.073 479.997 324.903C479.997 327.733 481.717 330.027 483.84 330.027Z" fill="#FFB8B8"/>
<path d="M967.751 721.845H701.879L645.578 455.694H597.529V443.752H655.258L711.559 709.902H967.751V721.845Z" fill="#3F3D56"/>
<path d="M740.841 770.468C754.975 770.468 766.432 759.01 766.432 744.877C766.432 730.743 754.975 719.285 740.841 719.285C726.707 719.285 715.25 730.743 715.25 744.877C715.25 759.01 726.707 770.468 740.841 770.468Z" fill="#3F3D56"/>
<path d="M931.923 770.468C946.057 770.468 957.515 759.01 957.515 744.877C957.515 730.743 946.057 719.285 931.923 719.285C917.79 719.285 906.332 730.743 906.332 744.877C906.332 759.01 917.79 770.468 931.923 770.468Z" fill="#3F3D56"/>
<path d="M962.904 716.221H704.225L658.584 490.669H1005.74C1007.51 490.669 1009.26 491.053 1010.87 491.794C1012.47 492.535 1013.9 493.616 1015.06 494.963C1016.21 496.309 1017.05 497.888 1017.54 499.593C1018.02 501.297 1018.13 503.086 1017.85 504.836L975.018 705.861C974.576 708.753 973.109 711.39 970.886 713.292C968.662 715.194 965.829 716.233 962.904 716.221V716.221ZM707.034 712.809H962.904C965.015 712.818 967.06 712.067 968.664 710.695C970.269 709.322 971.327 707.419 971.646 705.331L1014.48 504.306C1014.68 503.043 1014.6 501.752 1014.25 500.522C1013.9 499.291 1013.29 498.151 1012.46 497.18C1011.63 496.208 1010.6 495.428 1009.44 494.893C1008.28 494.358 1007.01 494.081 1005.74 494.081H662.726L707.034 712.809Z" fill="#3F3D56"/>
<path d="M754.513 715.499L724.623 492.653L727.989 492.097L757.879 714.943L754.513 715.499Z" fill="#3F3D56"/>
<path d="M920.712 713.788L917.343 713.242L946.36 492.102L949.729 492.648L920.712 713.788Z" fill="#3F3D56"/>
<path d="M841.527 492.375H838.115V715.221H841.527V492.375Z" fill="#3F3D56"/>
<path d="M676.014 552.088L676.005 555.501L1006.3 556.3L1006.31 552.888L676.014 552.088Z" fill="#3F3D56"/>
<path d="M983 657.494L692.829 659.478L692.853 662.89L983.024 660.906L983 657.494Z" fill="#3F3D56"/>
<path d="M602.648 458.253C613.012 458.253 621.415 453.67 621.415 448.017C621.415 442.363 613.012 437.78 602.648 437.78C592.283 437.78 583.881 442.363 583.881 448.017C583.881 453.67 592.283 458.253 602.648 458.253Z" fill="#3F3D56"/>
</g>
<defs>
<clipPath id="clip0_2_73">
<rect width="888" height="741.048" fill="white" transform="translate(130 37)"/>
</clipPath>
</defs>
</svg>
