<svg width="1087" height="744" viewBox="0 0 1087 744" fill="none" xmlns="http://www.w3.org/2000/svg">
<g clip-path="url(#clip0_2_221)">
<path d="M689.176 643.375L687.192 615.786C674.199 609.291 659.816 606.066 645.294 606.39C665.725 622.183 664.089 653.748 678.239 675.35C682.704 682.054 688.62 687.667 695.549 691.773C702.478 695.879 710.242 698.374 718.266 699.072L735.271 708.854C737.216 695.998 736.35 682.873 732.735 670.384C729.119 657.894 722.839 646.337 714.326 636.508C709.496 631.042 703.997 626.205 697.958 622.113C694.242 632.784 689.176 643.375 689.176 643.375Z" fill="#F2F2F2"/>
<path d="M587.89 712.528H977.171C977.502 712.528 977.819 712.396 978.053 712.163C978.287 711.929 978.418 711.612 978.418 711.281C978.418 710.95 978.287 710.633 978.053 710.399C977.819 710.165 977.502 710.034 977.171 710.034H587.89C587.56 710.034 587.243 710.165 587.009 710.399C586.775 710.633 586.643 710.95 586.643 711.281C586.643 711.612 586.775 711.929 587.009 712.163C587.243 712.396 587.56 712.528 587.89 712.528V712.528V712.528Z" fill="#CCCCCC"/>
<path d="M340.04 414.813V415.347H340.412C340.277 415.177 340.153 414.999 340.04 414.813ZM342.903 188.476C316.918 222.269 302.852 263.715 302.902 306.343C302.907 312.835 303.226 319.235 303.856 325.543C303.953 326.627 304.066 327.711 304.212 328.778C307.822 360.149 319.093 390.151 337.031 416.14C337.726 417.159 338.438 418.161 339.15 419.164C346.872 429.991 355.688 439.994 365.458 449.015C444.111 521.643 566.748 516.758 639.375 438.105C640.491 436.925 641.559 435.728 642.61 434.531C672.337 400.864 689.438 357.912 690.988 313.026C692.537 268.141 678.437 224.112 651.102 188.476C650.277 187.392 649.436 186.308 648.563 185.241C646.649 182.831 644.664 180.469 642.61 178.156C641.559 176.959 640.491 175.762 639.375 174.581C621.242 154.914 599.227 139.22 574.722 128.491C550.217 117.761 523.753 112.228 497.002 112.243C495.142 112.243 493.298 112.275 491.454 112.324C490.224 112.356 488.995 112.404 487.766 112.469C460.232 113.776 433.293 120.944 408.749 133.493C384.206 146.042 362.623 163.684 345.442 185.241C344.568 186.308 343.728 187.392 342.902 188.476L342.903 188.476ZM340.412 415.347C340.277 415.177 340.152 414.999 340.039 414.813V415.347H340.412Z" fill="white"/>
<path d="M338.681 412.824L339.231 411.708L380.412 328.778V328.762L382.014 325.543V325.527L450.046 188.476V188.46L451.648 185.241L451.663 185.225L486.117 115.785L487.767 112.469C488.996 112.405 490.225 112.356 491.454 112.324L489.821 115.623L455.271 185.225V185.241L453.669 188.46V188.476L383.858 329.102L383.842 329.118L342.66 412.112L341.043 415.347L340.784 415.881L339.15 419.164C338.438 418.161 337.726 417.159 337.031 416.14L338.681 412.824Z" fill="#3F3D56"/>
<path d="M383.162 325.543V328.778H304.212C304.066 327.711 303.953 326.627 303.856 325.543H383.162Z" fill="#3F3D56"/>
<path d="M505.856 350.778V347.543H584.806C584.952 348.611 585.065 349.694 585.162 350.778H505.856Z" fill="#3F3D56"/>
<path d="M571.892 339.507H575.127V418.458C574.059 418.604 572.975 418.717 571.892 418.814V339.507Z" fill="#3F3D56"/>
<path d="M651.102 188.476C650.277 187.392 649.436 186.308 648.563 185.241H642.61V178.156C641.559 176.959 640.491 175.762 639.375 174.581V185.241H345.442C344.568 186.308 343.728 187.392 342.903 188.476H639.375V438.105C640.491 436.924 641.559 435.728 642.61 434.531V188.476H651.102Z" fill="#3F3D56"/>
<path d="M640.992 412.11H340.036V415.345H640.992V412.11Z" fill="#3F3D56"/>
<path d="M340.04 414.813V415.347H340.412C340.277 415.177 340.153 414.999 340.04 414.813ZM342.903 188.476C316.918 222.269 302.852 263.715 302.902 306.343C302.907 312.835 303.226 319.235 303.856 325.543C303.953 326.627 304.066 327.711 304.212 328.778C307.822 360.149 319.093 390.151 337.031 416.14C337.726 417.159 338.438 418.161 339.15 419.164C346.872 429.991 355.688 439.994 365.458 449.015C444.111 521.643 566.748 516.758 639.375 438.105C640.491 436.925 641.559 435.728 642.61 434.531C672.337 400.864 689.438 357.912 690.988 313.026C692.537 268.141 678.437 224.112 651.102 188.476C650.277 187.392 649.436 186.308 648.563 185.241C646.649 182.831 644.664 180.469 642.61 178.156C641.559 176.959 640.491 175.762 639.375 174.581C621.242 154.914 599.227 139.22 574.722 128.491C550.217 117.761 523.753 112.228 497.002 112.243C495.142 112.243 493.298 112.275 491.454 112.324C490.224 112.356 488.995 112.404 487.766 112.469C460.232 113.776 433.293 120.944 408.749 133.493C384.206 146.042 362.623 163.684 345.442 185.241C344.568 186.308 343.728 187.392 342.902 188.476L342.903 188.476ZM307.463 328.778C307.317 327.711 307.204 326.627 307.091 325.543C302.16 276.415 316.457 227.287 346.979 188.476C347.836 187.392 348.693 186.308 349.583 185.241C366.3 164.85 387.065 148.15 410.566 136.195C434.067 124.239 459.792 117.29 486.117 115.785C487.345 115.72 488.575 115.656 489.821 115.623C492.198 115.526 494.592 115.478 497.002 115.478C523.901 115.462 550.497 121.148 575.038 132.161C599.579 143.174 621.506 159.263 639.375 179.369C640.491 180.598 641.575 181.828 642.61 183.089C643.241 183.801 643.839 184.513 644.422 185.241C645.311 186.308 646.168 187.392 647.026 188.476C674.222 223.005 688.641 265.878 687.836 309.824C687.031 353.771 671.053 396.087 642.61 429.597C641.575 430.859 640.491 432.088 639.375 433.317C629.526 444.382 618.422 454.262 606.286 462.756C520.025 523.128 401.156 502.141 340.783 415.881C340.654 415.703 340.524 415.525 340.411 415.347C340.277 415.177 340.152 414.999 340.039 414.813C339.57 414.15 339.118 413.487 338.681 412.824C321.69 387.715 310.984 358.89 307.463 328.778L307.463 328.778ZM340.412 415.347C340.277 415.177 340.152 414.999 340.039 414.813V415.347H340.412Z" fill="#CCCCCC"/>
<path d="M720.549 514.821H526.899C524.532 514.819 522.262 513.877 520.587 512.203C518.913 510.528 517.971 508.258 517.969 505.891V411.534C517.971 409.166 518.913 406.896 520.587 405.221C522.262 403.547 524.532 402.605 526.899 402.603H720.549C722.917 402.605 725.187 403.547 726.862 405.221C728.536 406.896 729.478 409.166 729.48 411.534V505.891C729.478 508.258 728.536 510.528 726.862 512.203C725.187 513.877 722.917 514.819 720.549 514.821V514.821Z" fill="#CACACA"/>
<path d="M635.25 507.229C592.84 507.229 548.617 506.824 532.117 506.561C529.946 506.516 527.879 505.625 526.356 504.076C524.834 502.528 523.977 500.446 523.969 498.275V411.541C523.969 410.763 524.278 410.017 524.827 409.467C525.376 408.916 526.121 408.606 526.899 408.603H720.543C721.321 408.604 722.066 408.913 722.616 409.462C723.167 410.011 723.477 410.755 723.48 411.533V470.38C723.444 479.986 719.644 489.196 712.896 496.033C706.148 502.869 696.989 506.789 687.385 506.951C672.007 507.151 653.797 507.229 635.25 507.229Z" fill="#E4E4E4"/>
<path d="M700.557 462.825H542.993C541.971 462.823 540.975 462.507 540.14 461.918C539.305 461.329 538.672 460.497 538.327 459.535L520.494 409.503C520.228 408.756 520.145 407.956 520.252 407.171C520.359 406.385 520.653 405.637 521.11 404.989C521.566 404.34 522.172 403.811 522.875 403.446C523.579 403.08 524.359 402.888 525.152 402.887L722.11 402.612H722.117C722.937 402.612 723.743 402.816 724.465 403.204C725.187 403.593 725.8 404.155 726.252 404.839C726.703 405.523 726.977 406.308 727.05 407.125C727.123 407.941 726.992 408.763 726.669 409.516L726.399 409.4L726.669 409.516L705.109 459.823C704.728 460.714 704.093 461.474 703.284 462.008C702.474 462.541 701.526 462.826 700.557 462.825V462.825Z" fill="#CACACA"/>
<path d="M588.662 497.501H534.329C532.991 497.499 531.709 496.966 530.764 496.02C529.819 495.073 529.288 493.791 529.288 492.453C529.288 491.116 529.819 489.833 530.764 488.886C531.709 487.94 532.991 487.407 534.329 487.405H588.662C589.999 487.407 591.281 487.94 592.226 488.886C593.171 489.833 593.702 491.116 593.702 492.453C593.702 493.791 593.171 495.073 592.226 496.02C591.281 496.966 589.999 497.499 588.662 497.501V497.501Z" fill="#CACACA"/>
<path d="M623.431 475.163C630.245 475.163 635.769 469.639 635.769 462.825C635.769 456.011 630.245 450.487 623.431 450.487C616.616 450.487 611.092 456.011 611.092 462.825C611.092 469.639 616.616 475.163 623.431 475.163Z" fill="#3F3D56"/>
<path d="M232.37 25.5125C262.687 4.16271 300.242 -4.26958 336.776 2.07068C373.309 8.41094 405.828 29.0044 427.178 59.3207C471.636 122.451 516.247 287.995 484.756 383.896C390.827 284.68 246.523 274.371 198.562 220.32C147.314 162.565 169.24 69.9713 232.37 25.5125Z" fill="#0000B3"/>
<path d="M314.772 168.467C339.954 168.467 360.368 148.053 360.368 122.871C360.368 97.6891 339.954 77.275 314.772 77.275C289.59 77.275 269.175 97.6891 269.175 122.871C269.175 148.053 289.59 168.467 314.772 168.467Z" fill="white"/>
<path d="M523.301 433.553C539.795 433.553 553.166 420.182 553.166 403.688C553.166 387.194 539.795 373.823 523.301 373.823C506.807 373.823 493.437 387.194 493.437 403.688C493.437 420.182 506.807 433.553 523.301 433.553Z" fill="#0000B3"/>
<path opacity="0.2" d="M265.989 112.35C262.97 117.521 260.999 123.236 260.188 129.168C259.378 135.101 259.744 141.135 261.265 146.926C262.787 152.717 265.434 158.152 269.056 162.92C272.677 167.688 277.203 171.696 282.374 174.715C287.545 177.734 293.259 179.706 299.192 180.516C305.124 181.327 311.159 180.961 316.95 179.439C322.741 177.918 328.176 175.271 332.944 171.649C337.712 168.027 341.72 163.502 344.739 158.331C336.6 165.471 326.186 169.481 315.361 169.644C304.536 169.807 294.005 166.113 285.655 159.221C277.305 152.33 271.68 142.692 269.787 132.032C267.894 121.372 269.856 110.387 275.322 101.042C271.621 104.283 268.47 108.102 265.989 112.35V112.35Z" fill="#231F20"/>
<path opacity="0.2" d="M198.476 220.535C246.438 274.585 390.741 284.895 484.671 384.111C487.602 375.037 489.859 365.759 491.422 356.352C397.539 266.156 261.269 254.757 214.93 202.535C173.455 155.795 179.911 86.2408 217.342 37.8448C166.007 85.4307 151.512 167.608 198.476 220.535Z" fill="#231F20"/>
<path d="M794.629 411.505L775.266 405.607C766.837 415.77 759.848 445.209 759.848 445.209L733.347 488.273C731.929 488.946 730.713 489.981 729.822 491.274C728.931 492.566 728.396 494.071 728.271 495.636C728.146 497.201 728.436 498.771 729.111 500.188C729.786 501.605 730.822 502.82 732.116 503.71C733.409 504.599 734.914 505.132 736.48 505.255C738.045 505.378 739.614 505.087 741.031 504.41C742.448 503.733 743.661 502.695 744.549 501.401C745.437 500.106 745.968 498.6 746.089 497.035L786.198 448.342L794.629 411.505Z" fill="#FFB6B6"/>
<path d="M794.258 416.205L797.837 386.893L789.815 373.497C788.231 370.873 785.944 368.744 783.214 367.351C780.483 365.959 777.418 365.357 774.363 365.616C770.225 365.994 766.385 367.929 763.619 371.03C760.853 374.131 759.368 378.166 759.464 382.32C759.765 394.919 761.75 410.85 769.495 415.204L769.573 415.248L794.258 416.205Z" fill="#6C63FF"/>
<path d="M848.959 681.066L837.348 686.67L810.203 644.55L827.341 636.278L848.959 681.066Z" fill="#FFB6B6"/>
<path d="M855.216 692.981L819.509 710.217L819.291 709.766C817.512 706.08 817.27 701.838 818.618 697.974C819.966 694.109 822.794 690.938 826.48 689.159L826.481 689.158L830.614 681.062L845.172 680.136L848.289 678.631L855.216 692.981Z" fill="#2F2E41"/>
<path d="M762.527 696.767L749.634 696.766L743.5 647.033L762.53 647.034L762.527 696.767Z" fill="#FFB6B6"/>
<path d="M762.982 710.217L723.332 710.216V709.714C723.333 705.621 724.959 701.696 727.853 698.802C730.747 695.908 734.672 694.282 738.765 694.282H738.766L746.008 688.787L759.521 694.283L762.982 694.283L762.982 710.217Z" fill="#2F2E41"/>
<path d="M749.749 466.114L734.974 568.001L738.995 581.407L733.719 590.902L741.467 662.366L738.322 669.291L747.11 674.711H764.991L765.94 599.221L770.357 588.137V582.029L779.349 535.997L781.424 607.656L784.294 613.194C794.988 637.455 809.393 645.399 819.576 663.534L837.459 653.848L837.084 646.624C840.676 644.805 831.69 639.489 830.826 635.556L829.262 628.514L818.831 606.906L818.433 599.297L821.288 547.54L819.944 477.844L796.488 459.908L749.749 466.114Z" fill="#2F2E41"/>
<path d="M772.964 342.532C785.795 342.532 796.197 332.13 796.197 319.3C796.197 306.469 785.795 296.067 772.964 296.067C760.133 296.067 749.732 306.469 749.732 319.3C749.732 332.13 760.133 342.532 772.964 342.532Z" fill="#FFB6B6"/>
<path d="M738.637 510.067L738.298 509.949L742.795 495.335C742.205 493.452 742.092 491.452 742.467 489.514C742.841 487.577 743.692 485.763 744.942 484.236C744.214 482.977 741.216 477.033 746.099 471.982C745.807 470.509 744.338 461.793 749.462 457.532C749.462 457.532 759.405 382.176 764.981 362.272C765.143 360.816 763.837 348.927 771.338 348.461C775.293 348.215 781.23 347.839 790.139 347.265C791.289 347.182 791.964 349.126 792.986 352.289C793.677 354.429 790.118 357.353 790.979 357.305L791.04 357.301L791.099 357.316C799.41 359.545 806.7 364.566 811.744 371.537C816.788 378.508 819.278 387.003 818.795 395.594L816.147 440.62C816.548 442.43 824.984 493.776 822.779 499.288C821.528 502.414 823.66 504.362 825.218 505.784C826.02 506.517 826.599 507.046 826.518 507.624C826.486 507.784 826.414 507.932 826.309 508.056C826.204 508.18 826.07 508.275 825.918 508.334C824.508 509.038 825.287 513.869 826.11 516.748L826.193 517.042L825.921 517.182C825.607 517.343 800.396 505.781 769.768 505.78C758.224 505.78 751.551 514.572 738.637 510.067Z" fill="black"/>
<path d="M791.376 333.584C791.134 333.46 790.922 333.286 790.752 333.074C790.582 332.863 790.458 332.618 790.389 332.355L790.058 331.006L791.076 332.067C791.621 331.616 792.037 331.03 792.283 330.367C792.529 329.703 792.595 328.987 792.476 328.29C792.356 327.593 792.055 326.94 791.603 326.396C791.15 325.853 790.562 325.438 789.899 325.194C789.451 325.045 788.991 324.933 788.524 324.86C788.036 324.782 787.555 324.666 787.085 324.513C785.986 324.038 785.038 323.271 784.344 322.295C783.65 321.319 783.236 320.172 783.147 318.978C782.996 316.872 783.229 314.757 783.836 312.735C773.585 314.31 763.132 313.995 752.993 311.807C751.431 311.478 749.935 310.89 748.567 310.067C746.063 308.582 743.979 306.485 742.509 303.972C742.315 303.633 742.235 303.241 742.279 302.853C742.324 302.465 742.492 302.102 742.758 301.816C742.943 301.616 743.166 301.457 743.415 301.347C743.664 301.238 743.933 301.18 744.205 301.178L743.834 300.174C743.718 299.86 743.687 299.521 743.745 299.191C743.803 298.862 743.947 298.553 744.163 298.298C744.378 298.042 744.658 297.848 744.973 297.735C745.288 297.623 745.628 297.596 745.957 297.657L747.272 297.903L747.145 297.03C747.098 296.704 747.137 296.372 747.257 296.066C747.377 295.76 747.575 295.49 747.832 295.284C748.088 295.078 748.394 294.942 748.719 294.89C749.044 294.838 749.377 294.871 749.684 294.987C749.967 295.093 750.268 295.137 750.569 295.115C750.869 295.094 751.162 295.007 751.426 294.861C751.69 294.716 751.919 294.515 752.098 294.272C752.276 294.029 752.4 293.751 752.461 293.456L752.913 291.26L752.959 291.143C755.184 287.437 759.457 284.743 764.684 283.752C769.346 282.868 774.105 283.315 778.709 283.746C780.661 283.786 782.579 284.27 784.316 285.162C785.102 285.616 785.747 286.279 786.179 287.078C786.611 287.876 786.812 288.779 786.76 289.686C791.293 288.292 796.157 291.069 798.561 294.568C801.421 298.729 801.883 303.949 801.966 308.031C802.163 317.682 800.175 325.578 796.057 331.5C795.468 332.506 794.575 333.299 793.508 333.767C793.236 333.858 792.951 333.904 792.664 333.903C792.215 333.905 791.772 333.795 791.376 333.584V333.584Z" fill="#2F2E41"/>
<path d="M792.211 425.058L775.158 414.153C764.299 421.663 749.624 448.123 749.624 448.123L712.483 482.436C710.936 482.702 709.486 483.37 708.279 484.374C707.072 485.378 706.151 486.683 705.608 488.156C705.066 489.629 704.921 491.219 705.188 492.766C705.456 494.313 706.126 495.762 707.131 496.968C708.137 498.174 709.442 499.093 710.916 499.634C712.39 500.175 713.98 500.318 715.527 500.048C717.073 499.779 718.522 499.107 719.726 498.1C720.931 497.094 721.849 495.787 722.388 494.313L774.15 458.253L792.211 425.058Z" fill="#FFB6B6"/>
<path d="M790.585 429.483L801.943 402.225L797.835 387.161C797.018 384.207 795.39 381.54 793.137 379.462C790.884 377.384 788.094 375.978 785.083 375.402V375.402C780.997 374.649 776.777 375.476 773.277 377.715C769.777 379.954 767.257 383.439 766.228 387.465C763.118 399.677 760.729 415.553 767.012 421.836L767.075 421.899L790.585 429.483Z" fill="black"/>
</g>
<path opacity="0.1" d="M631.061 136.854C561.431 134.434 495.061 111.954 431.781 87.3644C368.501 62.7744 305.781 35.5244 237.781 22.4944C194.061 14.1044 144.061 12.9244 108.841 36.3644C74.9411 58.9144 63.9911 97.8444 58.1011 133.964C53.6711 161.144 51.1011 189.744 63.2111 215.194C71.6411 232.854 86.6011 247.704 96.9511 264.624C132.951 323.494 107.501 396.094 68.4811 453.624C50.1811 480.624 28.9511 506.314 14.8311 535.024C0.711055 563.734 -5.82894 596.624 6.53106 625.904C18.7811 654.904 47.9611 676.724 79.5811 692.054C143.801 723.164 219.471 732.064 293.261 737.164C456.601 748.334 620.821 743.494 784.591 738.654C845.201 736.854 906.081 735.044 965.701 725.654C998.811 720.444 1033 712.184 1057.04 692.244C1087.55 666.924 1095.12 624.064 1074.67 592.314C1040.37 539.074 945.541 525.844 921.561 468.704C908.371 437.254 921.921 402.214 941.101 373.044C982.231 310.474 1051.19 255.574 1054.82 184.044C1057.32 134.914 1024.17 85.7244 972.911 62.4744C919.191 38.0844 844.691 41.1644 805.061 81.4744C764.251 123.004 692.531 138.984 631.061 136.854Z" fill="#6C63FF"/>
<defs>
<clipPath id="clip0_2_221">
<rect width="808.418" height="712.528" fill="white" transform="translate(170)"/>
</clipPath>
</defs>
</svg>
